<?xml version="1.0" standalone="no"?>
<!DOCTYPE svg PUBLIC "-//W3C//DTD SVG 20010904//EN"
        "http://www.w3.org/TR/2001/REC-SVG-20010904/DTD/svg10.dtd">
<svg version="1.0" xmlns="http://www.w3.org/2000/svg"
     width="512.000000pt" height="512.000000pt" viewBox="0 0 512.000000 512.000000"
     preserveAspectRatio="xMidYMid meet">

    <g transform="translate(0.000000,512.000000) scale(0.100000,-0.100000)"
       fill="#000000" stroke="none">
        <path d="M3857 4949 c-128 -19 -291 -83 -406 -161 -82 -55 -222 -207 -272
-293 -103 -179 -134 -295 -133 -495 1 -205 39 -345 142 -510 58 -94 195 -233
288 -293 164 -106 324 -152 529 -152 195 1 313 33 490 134 109 62 263 217 326
326 102 177 133 294 133 495 0 201 -32 321 -133 495 -62 107 -208 254 -320
323 -189 116 -423 163 -644 131z"/>
        <path d="M637 4786 c-130 -47 -190 -189 -137 -328 11 -29 20 -54 20 -55 0 -2
-31 -3 -69 -3 -74 0 -137 -18 -179 -51 -42 -32 -80 -96 -88 -145 -8 -54 31
-435 52 -511 17 -62 60 -115 118 -146 39 -21 53 -22 286 -22 l245 0 45 27 c25
14 67 49 95 77 l49 51 103 0 103 0 0 -55 c0 -46 4 -60 25 -80 l24 -25 271 0
271 0 24 25 25 24 0 431 0 431 -25 24 -24 25 -271 0 -271 0 -24 -25 c-14 -13
-25 -31 -25 -40 0 -12 -16 -15 -98 -15 l-97 0 -114 191 c-63 104 -122 194
-132 200 -26 13 -158 10 -202 -5z m223 -324 c58 -97 115 -187 127 -199 21 -22
30 -23 158 -23 l135 0 0 -200 0 -200 -136 0 -135 0 -84 -80 -84 -80 -200 0
c-269 0 -245 -23 -278 269 -27 243 -26 263 23 281 14 6 84 10 155 10 125 0
131 1 154 25 34 33 32 58 -15 175 -22 55 -40 112 -40 126 0 36 42 74 82 74 32
0 36 -6 138 -178z"/>
        <path d="M2335 4630 c-101 -13 -248 -40 -263 -48 -8 -6 -9 -18 -2 -42 5 -19
13 -53 19 -76 l11 -40 86 17 c210 43 467 48 669 15 44 -8 83 -11 87 -7 5 5 38
151 34 151 0 0 -39 7 -86 15 -101 18 -455 28 -555 15z"/>
        <path d="M2400 4234 c-14 -2 -59 -9 -100 -15 -112 -16 -240 -50 -240 -63 0 -9
39 -134 44 -143 1 -1 46 10 101 23 154 38 329 51 483 36 70 -7 139 -15 153
-18 24 -5 26 -3 37 59 18 97 20 93 -50 107 -63 12 -381 22 -428 14z"/>
        <path d="M2427 3580 c-18 -15 -29 -37 -37 -78 -23 -111 -48 -123 -138 -68 -89
54 -103 51 -200 -47 -97 -97 -100 -110 -46 -199 55 -90 43 -115 -68 -138 -87
-17 -98 -37 -98 -170 0 -133 11 -153 98 -170 111 -23 123 -48 68 -138 -54 -89
-51 -103 47 -200 97 -97 110 -100 199 -46 90 55 115 43 138 -68 17 -87 37 -98
170 -98 133 0 153 11 170 98 23 111 48 123 138 68 89 -54 103 -51 200 47 96
97 100 110 47 197 -19 32 -35 64 -35 72 0 30 28 49 93 64 97 23 107 38 107
174 0 136 -10 151 -107 174 -65 15 -93 34 -93 64 0 8 16 40 35 72 53 87 49
101 -48 198 -97 97 -110 100 -199 46 -90 -55 -115 -43 -138 68 -17 87 -37 98
-170 98 -93 0 -111 -3 -133 -20z m188 -645 c16 -15 25 -36 25 -55 0 -19 -9
-40 -25 -55 -49 -50 -135 -15 -135 55 0 41 39 80 80 80 19 0 40 -9 55 -25z"/>
        <path d="M1061 3318 c-204 -410 -237 -858 -95 -1288 39 -118 150 -350 168
-350 6 0 39 18 73 40 l62 40 -34 57 c-94 158 -168 402 -187 616 -27 289 48
636 187 870 l34 57 -62 40 c-34 22 -67 40 -73 40 -6 0 -39 -55 -73 -122z"/>
        <path d="M641 3363 c-51 -112 -109 -315 -137 -477 -21 -129 -29 -388 -15 -521
49 -454 231 -870 523 -1194 l48 -53 59 53 58 53 -79 94 c-225 266 -366 568
-430 922 -25 139 -30 444 -10 583 17 117 65 303 103 402 17 44 31 86 32 93 2
10 -118 72 -137 72 -2 0 -8 -12 -15 -27z"/>
        <path d="M4525 2962 c-38 -7 -73 -17 -76 -20 -4 -4 -1 -43 7 -87 88 -529 -80
-1123 -435 -1540 l-51 -59 55 -55 54 -55 27 24 c90 84 242 312 329 493 172
360 237 747 190 1137 -8 69 -18 136 -22 151 l-8 25 -70 -14z"/>
        <path d="M4102 2877 c-53 -10 -54 -11 -48 -41 83 -461 -56 -956 -358 -1283
-36 -39 -66 -75 -66 -80 0 -5 24 -32 54 -62 l53 -53 67 74 c237 259 382 581
427 948 13 106 7 348 -12 448 -13 70 -11 69 -117 49z"/>
        <path d="M1935 2066 c-151 -36 -253 -92 -361 -200 -90 -90 -143 -175 -182
-294 -22 -67 -26 -94 -25 -212 0 -111 3 -147 21 -200 12 -35 20 -65 19 -65 -1
-1 -20 -7 -43 -13 -68 -20 -106 -53 -176 -157 -72 -105 -81 -137 -50 -173 17
-21 1360 -581 1413 -589 18 -4 93 29 267 116 l242 121 390 0 390 0 0 80 0 80
-410 0 -410 0 -231 -116 -231 -115 -614 252 c-348 143 -614 258 -614 265 0 22
66 84 90 84 12 0 235 -65 494 -145 259 -80 482 -145 496 -145 18 0 69 45 207
183 159 158 183 187 183 214 0 17 -9 41 -19 54 -18 22 -28 24 -153 30 -142 5
-175 15 -231 68 -26 23 -57 71 -57 86 0 3 95 5 212 5 l212 0 121 -120 122
-120 416 0 417 0 0 80 0 80 -382 0 -382 0 -121 120 c-75 74 -130 120 -142 120
-17 0 -22 9 -27 49 -17 132 -88 265 -200 377 -139 139 -286 203 -481 210 -72
2 -131 -1 -170 -10z m320 -178 c186 -62 328 -221 370 -415 l7 -33 -212 0 -211
0 -26 -26 c-24 -24 -25 -31 -21 -93 12 -162 134 -305 299 -351 l59 -16 -73
-70 -72 -71 -379 117 -379 117 -22 38 c-71 117 -91 313 -46 445 66 191 228
336 419 375 84 18 205 11 287 -17z"/>
        <path d="M1963 1745 c-103 -32 -204 -121 -251 -223 -24 -50 -27 -69 -27 -162
0 -92 3 -112 26 -160 14 -30 35 -66 46 -79 23 -28 30 -25 96 36 l46 42 -27 48
c-21 38 -26 60 -26 113 0 94 44 169 124 210 65 33 118 34 215 5 17 -5 27 6 58
62 36 63 37 68 20 80 -54 40 -215 55 -300 28z"/>
    </g>
</svg>
